<?xml version="1.0" encoding="UTF-8"?>
<!-- Generator: Adobe Illustrator 18.1.0, SVG Export Plug-In . SVG Version: 6.00 Build 0)  -->
<svg version="1.1" id="Layer_1" xmlns="http://www.w3.org/2000/svg" xmlns:xlink="http://www.w3.org/1999/xlink" x="0px" y="0px" viewBox="0 0 300 300" enable-background="new 0 0 300 300" xml:space="preserve">
<g>
	<g>
		<g>
			<path fill="#ac070e" d="M114.8,148.2c0.8-8.2,1.2-14.8,1.2-19.8c0-2.2-0.2-9.2-2.8-9.2c-6,0-15.8,5.6-29.4,32.4l-2,4l-3.6-3     c-4-3.4-6-6.4-6-9.4c0-9.2,7.6-21,23.4-35.8c15.6-14.8,27.8-22,37.4-22s21,4.4,21,26c0,3.8-0.4,9.2-1,15.6l-1.6,16.4l-1.6,13.8     c13.8-18.8,28.8-34.8,44.6-47.8c19.8-16.2,36.4-24,50.8-24c10.6,0,23.2,5.4,23.2,31c0,5.6-0.8,14.2-2.2,25.4l-11,75.4     c-2.2,14.8-3.4,26.8-3.4,35.2c0,1.2,0,6.8,2,6.8c4,0,12.2-3.6,26-26V23H23.4v256.6H100l3-26.8L114.8,148.2z"/>
		</g>
	</g>
	<g>
		<g>
			<path fill="#ac070e" d="M280,262.8c-2,2.2-4.2,4.4-6.6,6.6c-4.2,4-8.2,7.4-12,10.4H280V262.8z"/>
		</g>
	</g>
	<g>
		<g>
			<path fill="#e50913" d="M219,219l7-49c2.2-15.6,3.4-28.2,3.4-37.4c0-12.4-5.2-12.4-7.4-12.4c-16,0-32.6,11.4-49.6,33.6     c-17.2,22.8-27.4,47.4-30.2,73.6l-5.6,50.8l-3.6,1.4h83.8c-1.4-3.6-2.2-8.4-2.2-14.4C214.6,254.2,216,238.6,219,219z"/>
		</g>
	</g>
</g>
</svg>